<svg id="svg" xmlns="http://www.w3.org/2000/svg" xmlns:xlink="http://www.w3.org/1999/xlink" width="400" height="400" viewBox="0, 0, 400,400"><g id="svgg"><path id="path0" d="M187.600 83.645 C 185.693 83.844,182.873 84.078,181.334 84.163 C 179.794 84.249,178.332 84.427,178.084 84.560 C 177.837 84.692,176.899 84.800,176.000 84.800 C 175.101 84.800,174.154 84.913,173.897 85.050 C 173.640 85.188,172.358 85.437,171.048 85.604 C 169.738 85.770,168.007 86.073,167.200 86.276 C 166.393 86.480,163.933 87.084,161.733 87.619 C 147.516 91.075,125.218 99.903,116.000 105.725 C 115.047 106.327,113.907 106.995,113.468 107.210 C 112.436 107.714,99.678 116.187,97.067 118.103 C 89.339 123.772,73.214 139.277,63.321 150.550 C 53.996 161.176,31.583 192.603,28.468 199.421 C 27.418 201.719,27.174 204.489,27.862 206.291 C 28.494 207.946,37.498 221.354,41.187 226.133 C 42.828 228.260,45.154 231.468,46.354 233.262 C 58.551 251.485,82.661 273.931,104.931 287.792 C 106.985 289.071,110.587 291.457,112.933 293.093 C 118.618 297.058,132.192 303.834,142.267 307.737 C 143.880 308.362,146.880 309.595,148.933 310.477 C 155.646 313.362,159.178 314.654,164.800 316.282 C 171.196 318.134,170.238 317.926,178.333 319.221 C 179.323 319.380,180.733 319.607,181.467 319.727 C 188.082 320.806,197.927 321.336,205.600 321.028 C 211.078 320.807,221.145 319.881,221.684 319.548 C 221.824 319.461,222.673 319.291,223.570 319.169 C 227.423 318.646,230.475 318.051,238.400 316.275 C 241.133 315.662,249.275 312.639,253.333 310.729 C 256.472 309.252,258.660 308.267,258.802 308.267 C 258.868 308.267,259.854 307.832,260.994 307.301 C 271.337 302.480,279.117 298.560,282.471 296.480 C 284.197 295.409,287.137 293.637,289.004 292.542 C 293.243 290.056,295.552 288.552,299.117 285.951 C 300.172 285.182,302.392 283.628,304.051 282.497 C 318.556 272.610,338.727 253.178,347.697 240.451 C 348.337 239.543,349.528 237.911,350.344 236.825 C 351.159 235.738,353.385 232.498,355.290 229.625 C 357.196 226.751,359.373 223.620,360.128 222.667 C 360.884 221.713,361.993 220.213,362.592 219.333 C 363.191 218.453,364.543 216.713,365.595 215.467 C 371.527 208.439,372.129 207.381,372.111 204.000 C 372.098 201.351,371.565 199.949,369.229 196.422 C 367.495 193.803,365.956 191.400,362.983 186.667 C 359.268 180.753,356.819 177.080,354.804 174.400 C 352.839 171.786,351.219 169.565,346.930 163.600 C 339.600 153.408,336.879 150.017,330.036 142.546 C 324.254 136.232,318.656 130.950,310.400 124.014 C 309.153 122.967,307.173 121.280,306.000 120.266 C 297.153 112.621,278.987 101.190,270.400 97.867 C 269.887 97.668,268.867 97.245,268.133 96.926 C 267.400 96.608,265.540 95.840,264.000 95.220 C 262.460 94.599,260.813 93.925,260.340 93.720 C 259.128 93.196,252.727 91.104,249.333 90.123 C 248.233 89.805,247.033 89.447,246.667 89.327 C 244.503 88.621,240.109 87.598,236.267 86.905 C 235.460 86.760,234.260 86.525,233.600 86.382 C 231.419 85.912,224.233 84.834,219.600 84.282 C 210.900 83.246,194.523 82.919,187.600 83.645 M201.067 97.207 C 208.033 97.365,214.633 97.797,219.333 98.401 C 220.507 98.552,221.887 98.726,222.400 98.788 C 222.913 98.849,223.753 98.970,224.267 99.057 C 224.780 99.143,226.100 99.336,227.200 99.485 C 230.731 99.965,233.913 100.711,241.733 102.892 C 242.760 103.178,245.039 103.795,246.798 104.263 C 250.300 105.194,266.224 111.466,270.133 113.454 C 292.757 124.955,316.594 145.239,332.495 166.519 C 333.597 167.994,335.781 170.820,337.348 172.800 C 343.160 180.141,355.095 198.683,356.878 203.139 C 357.613 204.976,357.502 205.316,355.617 207.001 C 353.959 208.484,353.360 209.335,348.800 216.692 C 347.694 218.476,345.924 221.172,343.501 224.764 C 342.336 226.491,334.708 235.708,332.430 238.142 C 331.534 239.100,329.660 241.194,328.267 242.795 C 321.979 250.019,317.397 254.639,311.600 259.598 C 302.739 267.177,301.680 268.043,299.200 269.736 C 297.953 270.587,295.853 272.144,294.533 273.196 C 291.465 275.642,289.083 277.306,287.067 278.414 C 284.652 279.740,281.963 281.371,279.205 283.182 C 277.840 284.079,275.810 285.241,274.695 285.764 C 272.453 286.816,272.715 286.684,267.867 289.205 C 262.801 291.838,253.933 296.267,253.725 296.267 C 253.626 296.267,252.148 296.880,250.439 297.631 C 245.950 299.602,245.850 299.643,244.533 300.082 C 243.873 300.301,242.133 300.925,240.667 301.468 C 235.747 303.290,234.282 303.770,231.200 304.575 C 229.513 305.015,227.413 305.485,226.533 305.620 C 225.653 305.754,224.333 305.988,223.600 306.139 C 222.867 306.290,221.487 306.516,220.533 306.642 C 219.580 306.767,216.820 307.147,214.400 307.486 C 208.701 308.284,191.647 308.403,188.400 307.668 C 185.869 307.095,184.233 306.794,180.000 306.122 C 174.109 305.187,170.358 304.310,167.430 303.182 C 165.910 302.597,163.640 301.770,162.385 301.344 C 159.953 300.519,158.069 299.831,157.200 299.450 C 156.286 299.049,148.358 295.755,143.333 293.688 C 136.855 291.024,134.199 289.829,129.473 287.451 C 120.159 282.766,103.750 272.229,98.232 267.390 C 96.777 266.114,90.834 261.196,89.463 260.133 C 84.305 256.136,77.246 249.165,68.229 239.162 C 63.982 234.452,54.299 222.375,51.409 218.184 C 49.912 216.014,47.779 213.320,46.207 211.616 C 43.367 208.538,42.133 206.070,42.133 203.469 C 42.133 201.829,46.064 194.464,49.131 190.359 C 49.826 189.428,51.816 186.627,53.554 184.133 C 59.054 176.243,62.019 172.224,64.668 169.067 C 67.775 165.364,72.234 159.929,73.838 157.889 C 74.483 157.070,78.083 153.332,81.838 149.582 C 88.136 143.294,90.697 140.946,96.363 136.265 C 97.516 135.313,99.976 133.270,101.830 131.726 C 107.926 126.647,111.259 124.346,121.067 118.448 C 123.393 117.049,132.523 112.384,134.667 111.500 C 142.588 108.231,147.879 106.143,150.667 105.187 C 152.500 104.559,155.260 103.606,156.800 103.070 C 159.870 102.002,164.630 100.718,167.255 100.250 C 168.178 100.085,169.533 99.844,170.267 99.715 C 171.000 99.585,172.440 99.288,173.467 99.053 C 174.493 98.819,176.353 98.521,177.600 98.390 C 178.847 98.259,180.647 98.028,181.600 97.875 C 182.553 97.723,185.073 97.479,187.200 97.332 C 189.327 97.186,191.307 97.023,191.600 96.970 C 191.893 96.917,192.493 96.912,192.933 96.958 C 193.373 97.004,197.033 97.116,201.067 97.207 M198.533 115.239 C 190.899 115.485,184.663 116.067,182.133 116.771 C 181.620 116.914,180.900 117.110,180.533 117.207 C 178.695 117.695,168.795 120.925,167.867 121.340 C 167.280 121.603,165.780 122.258,164.533 122.797 C 158.027 125.606,149.643 130.741,144.000 135.372 C 128.090 148.429,115.341 168.766,111.760 186.800 C 109.878 196.280,109.873 211.456,111.748 219.937 C 111.887 220.563,112.000 221.415,112.000 221.831 C 112.000 222.247,112.105 222.935,112.233 223.360 C 112.362 223.785,112.615 224.793,112.797 225.600 C 114.467 233.021,121.146 246.990,126.747 254.771 C 133.316 263.899,144.211 273.847,154.519 280.129 C 157.128 281.718,160.178 283.408,161.298 283.884 C 170.703 287.883,173.304 288.792,179.200 290.138 C 180.593 290.456,182.093 290.821,182.533 290.949 C 188.400 292.657,205.600 293.217,210.696 291.866 C 211.519 291.648,212.899 291.356,213.763 291.219 C 217.649 290.598,222.646 289.502,226.267 288.476 C 229.990 287.420,236.938 284.388,245.200 280.213 C 253.140 276.201,263.125 267.378,269.433 258.800 C 270.080 257.920,271.227 256.480,271.982 255.600 C 273.424 253.918,277.427 248.280,278.345 246.636 C 282.519 239.165,284.495 234.356,286.169 227.600 C 286.314 227.013,286.558 226.173,286.712 225.733 C 287.591 223.212,288.432 217.743,288.824 212.000 C 289.144 207.305,288.945 193.806,288.518 191.340 C 287.261 184.069,286.522 180.903,285.196 177.091 C 279.527 160.806,269.462 146.359,255.637 134.665 C 245.216 125.850,238.797 122.427,224.933 118.287 C 223.173 117.762,221.373 117.222,220.933 117.087 C 220.493 116.952,219.413 116.706,218.533 116.541 C 217.653 116.375,216.354 116.126,215.646 115.986 C 214.938 115.847,213.918 115.733,213.380 115.732 C 212.841 115.731,211.980 115.617,211.467 115.479 C 210.180 115.132,204.891 115.034,198.533 115.239 M202.667 129.603 C 217.730 130.151,228.866 133.560,241.909 141.615 C 258.929 152.128,272.771 173.894,275.475 194.400 C 276.128 199.350,275.486 215.470,274.610 216.110 C 274.341 216.307,274.248 216.688,274.332 217.260 C 274.447 218.039,274.180 219.649,273.590 221.733 C 271.928 227.604,270.359 231.799,268.481 235.391 C 258.539 254.403,248.318 264.645,232.267 271.682 C 222.534 275.948,218.840 277.297,215.333 277.866 C 214.307 278.032,212.627 278.338,211.600 278.545 C 207.546 279.362,197.987 279.292,191.733 278.400 C 190.780 278.264,188.862 278.014,187.470 277.844 C 182.657 277.258,177.167 275.912,174.470 274.659 C 173.848 274.370,173.253 274.133,173.148 274.133 C 172.609 274.133,164.468 270.303,161.333 268.574 C 145.973 260.103,132.184 243.226,126.713 226.201 C 125.118 221.235,124.533 218.970,124.533 217.752 C 124.533 217.209,124.427 216.563,124.298 216.316 C 123.384 214.570,123.003 199.924,123.731 194.533 C 124.965 185.407,128.590 174.375,132.521 167.788 C 133.334 166.424,134.215 164.941,134.477 164.493 C 142.086 151.481,163.129 136.016,179.067 131.723 C 183.137 130.627,183.878 130.462,186.133 130.150 C 187.380 129.978,188.820 129.739,189.333 129.619 C 190.653 129.310,194.508 129.306,202.667 129.603 M195.605 136.959 C 194.320 137.430,192.955 138.693,192.177 140.133 C 191.407 141.558,191.355 153.924,192.110 155.982 C 194.060 161.295,200.071 161.551,202.712 156.433 C 203.348 155.200,203.327 142.710,202.686 140.698 C 201.763 137.806,198.295 135.975,195.605 136.959 M220.789 144.118 C 218.181 145.829,212.000 157.157,212.000 160.225 C 212.000 162.906,217.634 165.761,220.253 164.407 C 221.370 163.829,222.661 162.189,223.859 159.824 C 224.441 158.674,225.925 156.245,227.156 154.427 C 230.209 149.918,230.384 148.301,228.087 145.845 C 225.994 143.607,222.741 142.837,220.789 144.118 M169.002 144.113 C 167.457 144.664,166.700 145.262,165.850 146.603 C 164.538 148.671,164.813 149.693,168.236 155.474 C 169.319 157.303,170.579 159.440,171.036 160.222 C 174.055 165.387,179.256 166.224,181.887 161.967 C 182.919 160.297,182.550 158.589,180.184 154.082 C 179.083 151.983,177.781 149.493,177.291 148.546 C 175.209 144.525,172.262 142.949,169.002 144.113 M148.912 159.706 C 147.160 160.502,145.867 162.543,145.867 164.514 C 145.867 165.993,147.123 167.728,150.769 171.284 C 157.614 177.961,159.884 178.950,162.962 176.600 C 167.172 173.385,166.493 170.760,159.912 164.812 C 153.654 159.155,151.909 158.345,148.912 159.706 M239.600 160.128 C 234.725 162.929,227.210 170.977,228.016 172.534 C 228.130 172.754,228.361 173.310,228.531 173.770 C 229.245 175.705,232.012 177.531,233.793 177.242 C 236.361 176.825,247.647 167.412,248.152 165.265 C 249.175 160.921,243.819 157.703,239.600 160.128 M195.333 177.105 C 192.946 177.367,189.399 178.482,186.801 179.788 C 180.671 182.870,174.672 190.002,172.940 196.267 C 172.338 198.445,171.772 204.360,172.047 205.600 C 172.161 206.113,172.259 207.133,172.265 207.867 C 172.318 214.289,178.803 224.875,184.969 228.603 C 189.961 231.621,200.186 234.252,202.374 233.081 C 202.662 232.926,203.176 232.799,203.516 232.798 C 205.451 232.792,213.389 229.173,216.300 226.970 C 220.949 223.451,224.619 218.369,226.389 213.001 C 226.836 211.644,227.325 210.173,227.474 209.733 C 229.053 205.094,227.124 194.691,223.764 189.721 C 217.172 179.968,207.671 175.752,195.333 177.105 M253.067 178.834 C 251.349 179.147,248.961 179.805,246.784 180.565 C 245.473 181.023,243.620 181.665,242.667 181.992 C 235.660 184.395,234.269 190.296,240.023 193.211 C 242.096 194.262,247.889 193.279,252.063 191.168 C 252.318 191.039,252.703 190.933,252.920 190.933 C 254.052 190.933,256.459 189.699,257.651 188.508 L 258.933 187.225 258.933 185.307 C 258.933 180.889,256.503 178.208,253.067 178.834 M137.111 180.137 C 136.042 181.037,135.466 182.849,135.468 185.314 C 135.470 189.313,135.577 189.371,149.867 193.077 C 153.672 194.064,155.567 193.497,157.235 190.872 C 158.891 188.266,156.370 184.168,152.359 182.946 C 151.942 182.819,150.760 182.392,149.733 181.997 C 142.711 179.297,138.795 178.720,137.111 180.137 M202.353 190.967 C 211.722 193.261,216.423 200.966,213.633 209.456 C 209.467 222.135,193.336 223.539,187.498 211.730 C 181.991 200.590,190.885 188.158,202.353 190.967 M134.267 199.204 C 130.072 199.830,128.748 206.059,132.171 209.064 C 135.143 211.673,148.851 211.725,153.027 209.143 C 156.566 206.955,155.837 201.963,151.685 199.951 C 150.240 199.251,137.588 198.708,134.267 199.204 M256.483 199.339 C 256.407 199.415,253.577 199.506,250.194 199.540 L 244.043 199.602 242.900 200.406 C 238.539 203.470,239.943 209.378,245.273 210.389 C 247.808 210.869,260.814 210.814,261.769 210.318 C 265.096 208.592,265.804 204.201,263.292 200.866 C 262.237 199.466,257.434 198.388,256.483 199.339 M237.124 216.908 C 233.753 220.748,235.092 224.342,240.825 226.847 C 253.194 232.253,254.505 232.459,256.756 229.352 C 259.395 225.709,258.860 222.696,255.377 221.582 C 254.766 221.386,252.047 220.338,249.333 219.252 C 241.583 216.150,241.128 216.000,239.455 216.000 C 238.045 216.000,237.858 216.073,237.124 216.908 M151.733 216.555 C 147.027 217.765,142.955 218.990,141.200 219.722 C 137.485 221.271,136.719 221.922,136.314 223.867 C 135.508 227.741,138.138 231.600,141.584 231.600 C 143.170 231.600,146.917 230.452,148.133 229.593 C 148.280 229.489,149.780 228.707,151.467 227.855 C 158.428 224.339,159.397 223.040,157.769 219.408 C 156.577 216.747,154.607 215.816,151.733 216.555 M229.756 230.122 C 227.306 231.371,226.299 235.638,227.890 238.029 C 229.822 240.932,236.549 246.808,239.540 248.205 C 241.841 249.280,243.928 248.612,246.363 246.022 L 247.793 244.502 247.685 242.800 C 247.548 240.640,246.394 238.859,243.683 236.618 C 242.650 235.765,240.769 234.198,239.503 233.137 C 235.393 229.693,232.408 228.770,229.756 230.122 M159.067 230.636 C 156.325 231.356,150.276 236.940,148.779 240.133 C 147.031 243.861,150.879 248.527,154.743 247.364 C 157.117 246.649,164.875 239.513,166.246 236.781 C 167.831 233.625,163.101 229.577,159.067 230.636 M175.867 239.227 C 173.707 239.891,170.740 244.250,167.192 251.974 C 164.970 256.811,165.074 258.309,167.766 260.259 C 171.285 262.809,174.153 261.449,177.598 255.600 C 178.375 254.280,179.759 251.940,180.672 250.400 C 183.623 245.426,184.038 244.266,183.478 242.568 C 182.658 240.084,178.714 238.353,175.867 239.227 M215.253 239.213 C 210.461 241.136,209.673 244.328,212.819 249.082 C 213.930 250.760,215.415 253.153,216.120 254.400 C 220.694 262.492,224.359 263.853,228.749 259.091 C 230.694 256.981,230.101 255.332,223.458 244.400 C 220.776 239.986,217.884 238.158,215.253 239.213 M195.067 243.361 C 191.889 245.091,191.409 246.729,191.454 255.683 C 191.508 266.462,192.040 267.848,196.588 269.061 C 198.201 269.491,202.130 267.532,202.675 266.026 C 203.867 262.732,203.637 249.096,202.345 246.470 C 200.804 243.337,197.613 241.974,195.067 243.361 " stroke="none" fill="#000000" fill-rule="evenodd"></path></g></svg>