<svg id="svg" xmlns="http://www.w3.org/2000/svg" xmlns:xlink="http://www.w3.org/1999/xlink" width="400" height="400" viewBox="0, 0, 400,400"><g id="svgg"><path id="path0" d="M182.933 117.887 C 180.807 117.998,177.927 118.229,176.533 118.400 C 175.140 118.572,173.040 118.815,171.867 118.941 C 166.112 119.557,159.807 120.831,154.933 122.362 C 150.516 123.749,149.535 124.057,146.533 124.991 C 134.472 128.744,115.995 138.457,101.733 148.540 C 98.550 150.791,96.830 152.043,92.801 155.042 C 83.383 162.053,71.177 173.076,61.333 183.463 C 55.233 189.899,46.769 198.556,37.262 208.085 C 28.372 216.995,27.703 217.982,28.515 220.997 C 28.992 222.769,30.178 223.531,34.650 224.937 C 44.097 227.909,50.580 231.544,62.640 240.633 C 65.778 242.998,69.086 245.473,69.990 246.133 C 70.894 246.793,73.474 248.773,75.722 250.533 C 77.971 252.293,80.432 254.213,81.192 254.800 C 81.951 255.387,83.224 256.373,84.020 256.992 C 88.252 260.282,99.975 268.101,105.467 271.297 C 112.004 275.101,127.466 282.666,132.400 284.474 C 139.811 287.190,147.535 289.619,152.800 290.891 C 158.716 292.319,161.604 292.891,165.200 293.346 C 166.227 293.476,167.907 293.703,168.933 293.851 C 176.354 294.921,187.443 295.100,197.333 294.309 C 200.193 294.080,203.913 293.877,205.600 293.858 C 207.287 293.839,209.387 293.718,210.267 293.589 C 211.147 293.460,213.620 293.225,215.763 293.067 C 217.907 292.909,220.247 292.723,220.963 292.652 C 226.681 292.086,229.541 291.689,231.467 291.195 C 231.980 291.063,232.760 290.901,233.200 290.835 C 239.411 289.902,257.092 284.666,266.000 281.122 C 271.059 279.109,282.892 273.026,289.484 269.050 C 291.968 267.552,294.960 265.765,296.133 265.079 C 300.040 262.794,303.427 260.579,306.061 258.588 C 322.675 246.027,336.831 238.580,351.009 234.945 C 355.202 233.870,356.978 233.348,363.333 231.322 C 365.387 230.668,368.115 229.940,369.397 229.704 C 373.318 228.984,374.878 227.486,375.465 223.877 C 375.921 221.075,374.953 219.506,371.595 217.608 C 366.822 214.911,360.731 210.414,356.251 206.280 C 355.289 205.393,353.609 203.927,352.518 203.023 C 343.622 195.654,340.822 192.953,328.798 180.133 C 315.100 165.529,306.246 157.332,295.949 149.719 C 294.967 148.994,292.927 147.481,291.416 146.359 C 280.098 137.954,261.841 128.672,246.400 123.472 C 242.175 122.049,240.579 121.642,235.823 120.778 C 232.799 120.228,232.084 120.110,227.867 119.469 C 217.816 117.940,196.417 117.187,182.933 117.887 M215.733 129.735 C 220.735 130.213,222.387 130.463,228.933 131.735 C 244.747 134.807,258.581 140.461,276.667 151.245 C 292.462 160.663,316.633 182.229,330.085 198.905 C 333.313 202.906,336.058 205.650,338.950 207.764 C 340.432 208.847,342.645 210.536,343.869 211.518 C 347.172 214.167,351.226 217.158,352.121 217.606 C 353.520 218.306,355.733 220.724,355.733 221.553 C 355.733 222.319,354.000 223.467,352.844 223.467 C 352.374 223.467,347.556 224.705,341.467 226.392 C 339.274 226.999,335.219 228.390,334.329 228.841 C 333.776 229.120,332.733 229.461,332.011 229.598 C 330.685 229.849,328.539 230.791,322.933 233.581 C 319.302 235.389,311.518 240.433,307.828 243.371 C 304.899 245.703,290.798 255.205,286.267 257.901 C 281.012 261.026,278.666 262.305,273.288 264.974 C 268.506 267.347,264.373 269.166,261.600 270.117 C 260.647 270.444,259.267 270.985,258.533 271.319 C 257.800 271.653,255.640 272.490,253.733 273.179 C 251.827 273.868,249.727 274.658,249.067 274.933 C 247.228 275.700,244.794 276.400,240.267 277.463 C 237.993 277.997,235.413 278.614,234.533 278.835 C 229.108 280.195,228.878 280.243,225.867 280.647 C 217.652 281.750,217.167 281.299,223.733 278.668 C 240.066 272.122,253.347 260.437,261.466 245.467 C 262.023 244.440,263.056 242.575,263.761 241.322 C 265.555 238.135,267.675 232.983,268.585 229.600 C 269.767 225.202,270.702 220.402,270.486 219.839 C 270.400 219.614,270.457 219.169,270.614 218.849 C 271.241 217.566,271.660 205.750,271.221 201.733 C 269.690 187.749,267.373 180.713,260.434 168.983 C 255.735 161.038,247.907 151.979,241.661 147.257 C 238.047 144.525,234.585 142.215,232.800 141.346 C 231.847 140.881,230.858 140.388,230.604 140.251 C 230.349 140.113,229.975 140.000,229.772 140.000 C 229.569 140.000,227.917 139.386,226.102 138.636 C 220.728 136.416,218.101 135.644,213.528 134.941 C 212.614 134.800,211.081 134.565,210.121 134.418 C 206.315 133.835,197.680 133.282,194.933 133.444 C 189.440 133.770,182.523 134.425,181.921 134.677 C 181.584 134.818,180.852 134.933,180.294 134.933 C 179.736 134.933,178.932 135.038,178.506 135.167 C 178.081 135.295,177.073 135.548,176.267 135.729 C 173.497 136.350,170.433 137.467,168.400 138.595 C 168.107 138.758,166.127 139.730,164.000 140.754 C 142.756 150.992,126.508 171.980,121.850 195.200 C 115.679 225.962,127.744 253.474,155.377 271.657 C 161.525 275.703,171.705 280.186,177.698 281.488 C 178.744 281.715,179.900 282.003,180.267 282.129 C 180.633 282.255,181.621 282.563,182.461 282.813 C 183.887 283.239,184.312 283.707,183.261 283.694 C 183.008 283.690,181.180 283.703,179.200 283.722 C 173.170 283.778,167.250 282.727,155.733 279.557 C 153.026 278.812,152.675 278.717,150.533 278.141 C 133.847 273.653,113.106 263.505,96.667 251.785 C 90.188 247.167,89.003 246.265,85.600 243.365 C 82.961 241.117,78.742 237.892,75.275 235.473 C 71.172 232.611,67.683 229.963,63.826 226.786 C 61.501 224.871,58.820 222.740,57.867 222.051 C 54.239 219.427,48.428 213.524,48.640 212.678 C 48.763 212.188,51.224 209.492,55.683 204.963 C 59.452 201.133,65.176 195.251,68.402 191.891 C 76.313 183.651,87.334 173.506,94.533 167.836 C 101.008 162.737,104.539 160.276,117.733 151.669 C 118.760 151.000,120.320 150.062,121.200 149.586 C 122.080 149.109,123.652 148.207,124.693 147.581 C 138.529 139.263,160.238 131.897,176.133 130.128 C 177.600 129.964,179.520 129.733,180.400 129.615 C 183.430 129.205,211.179 129.299,215.733 129.735 M206.000 143.982 C 212.334 144.662,213.062 144.909,222.478 149.582 C 231.604 154.110,232.243 154.519,237.373 159.108 C 246.545 167.312,250.707 173.063,255.831 184.612 C 261.337 197.021,262.343 213.526,258.305 225.200 C 255.472 233.389,253.436 237.905,249.786 244.092 C 246.682 249.354,236.458 258.769,229.333 262.927 C 228.233 263.569,226.492 264.607,225.464 265.235 C 217.086 270.347,203.214 273.819,194.667 272.943 C 185.615 272.014,183.296 271.556,179.067 269.861 C 177.893 269.391,176.213 268.769,175.333 268.479 C 174.453 268.189,172.413 267.270,170.800 266.438 C 169.187 265.605,167.087 264.570,166.133 264.137 C 163.452 262.919,159.048 259.844,156.397 257.338 C 155.075 256.089,152.795 254.113,151.330 252.948 C 141.907 245.450,135.657 235.657,132.371 223.243 C 127.043 203.113,134.711 178.772,151.507 162.502 C 154.035 160.053,160.967 154.933,161.754 154.933 C 161.828 154.933,163.174 154.116,164.745 153.118 C 172.785 148.004,178.755 145.647,188.400 143.776 C 190.145 143.437,202.245 143.579,206.000 143.982 M194.933 146.961 C 192.084 147.557,191.330 149.931,191.343 158.267 C 191.357 167.269,192.318 169.600,196.015 169.600 C 199.682 169.600,200.267 168.099,200.265 158.701 C 200.263 148.475,199.172 146.074,194.933 146.961 M209.200 149.705 C 206.605 150.884,206.146 152.300,205.800 160.184 C 205.486 167.349,205.554 167.920,206.938 169.831 C 209.648 173.571,212.587 171.863,215.755 164.708 C 216.674 162.632,217.667 160.663,217.961 160.333 C 218.944 159.225,218.266 154.978,217.225 155.733 C 217.124 155.807,216.672 155.120,216.219 154.207 C 214.337 150.409,211.564 148.631,209.200 149.705 M177.800 151.059 C 174.903 153.069,174.644 155.313,176.552 161.877 C 179.492 171.996,183.485 174.865,185.875 168.576 C 187.056 165.467,184.463 152.700,182.326 151.105 C 181.163 150.236,179.017 150.214,177.800 151.059 M229.584 160.247 C 227.093 161.023,225.280 162.818,221.895 167.859 C 217.837 173.904,217.349 175.701,219.269 177.518 C 222.203 180.294,224.574 179.084,230.267 171.902 C 235.221 165.653,234.933 166.087,234.933 164.864 C 234.933 162.252,231.809 159.555,229.584 160.247 M161.065 161.133 C 156.489 163.879,156.767 166.276,162.415 172.800 C 168.500 179.829,170.655 181.051,172.870 178.730 C 175.142 176.348,174.804 174.568,170.836 168.000 C 166.376 160.619,164.325 159.178,161.065 161.133 M107.045 168.045 C 105.267 168.370,104.098 169.361,102.390 171.990 C 101.597 173.210,100.247 174.784,99.177 175.735 C 94.486 179.904,94.751 184.702,99.794 186.930 C 102.876 188.291,105.270 187.534,108.882 184.057 C 110.640 182.366,111.966 181.363,113.567 180.516 C 118.391 177.963,120.008 174.719,118.293 171.035 C 116.903 168.050,112.870 166.978,107.045 168.045 M279.686 169.016 C 277.813 169.233,274.949 173.168,275.342 174.986 C 276.317 179.503,280.352 181.862,283.958 180.021 C 289.409 177.239,285.937 168.291,279.686 169.016 M149.276 172.399 C 148.327 172.934,147.286 174.761,147.070 176.267 C 146.789 178.231,148.085 179.848,152.133 182.584 C 153.013 183.179,154.735 184.513,155.960 185.549 C 159.850 188.837,162.258 189.414,164.111 187.500 C 166.062 185.483,165.663 182.487,163.175 180.485 C 162.570 179.998,160.482 178.150,158.536 176.379 C 153.946 172.201,151.495 171.148,149.276 172.399 M238.880 172.677 C 237.764 173.259,235.473 175.280,229.857 180.639 C 226.754 183.599,226.793 186.523,229.951 187.716 C 231.969 188.479,233.446 187.998,236.400 185.615 C 237.427 184.787,238.958 183.658,239.803 183.105 C 242.876 181.096,245.193 179.058,245.872 177.768 L 246.533 176.512 245.842 175.256 C 244.221 172.311,241.512 171.307,238.880 172.677 M189.333 179.631 C 177.999 181.676,170.028 190.530,168.119 203.199 C 163.484 233.944,200.146 250.682,218.126 226.030 C 227.765 212.813,224.958 192.784,212.277 184.302 C 206.342 180.332,196.526 178.334,189.333 179.631 M248.533 185.581 C 247.600 185.761,246.843 186.097,245.041 187.129 C 244.213 187.603,242.433 188.415,239.333 189.731 C 238.893 189.918,237.965 190.325,237.270 190.636 C 236.575 190.946,235.942 191.200,235.864 191.200 C 234.556 191.200,232.533 194.047,232.533 195.889 C 232.533 197.602,234.560 199.442,236.467 199.461 C 238.499 199.481,251.562 194.064,252.677 192.739 C 255.054 189.914,252.142 184.884,248.533 185.581 M141.661 186.134 C 139.698 187.331,138.495 190.344,139.348 191.928 C 140.033 193.200,140.892 193.738,144.897 195.402 C 146.824 196.202,149.660 197.382,151.200 198.025 C 156.095 200.067,159.200 199.112,159.200 195.564 C 159.200 192.859,158.797 192.452,153.467 189.782 C 144.463 185.271,143.543 184.986,141.661 186.134 M89.067 190.628 C 82.690 192.009,78.572 197.626,78.580 204.933 C 78.589 213.772,84.053 219.733,92.146 219.733 C 94.384 219.733,94.660 219.666,97.298 218.485 C 113.069 211.421,105.851 186.994,89.067 190.628 M190.558 192.934 C 192.260 193.931,192.667 195.010,192.667 198.533 C 192.667 203.900,189.932 207.200,185.483 207.200 C 183.715 207.200,181.559 206.281,180.363 205.018 C 175.113 199.470,183.912 189.039,190.558 192.934 M95.014 200.987 C 97.846 202.999,98.126 206.860,95.562 208.565 C 92.682 210.480,88.240 208.927,87.837 205.864 C 87.245 201.368,91.490 198.483,95.014 200.987 M250.800 201.238 C 249.473 201.507,246.348 202.201,244.400 202.658 C 243.227 202.934,241.187 203.294,239.867 203.460 C 235.539 204.002,234.309 204.728,233.578 207.170 C 232.543 210.623,234.959 212.684,240.667 213.217 C 244.506 213.575,246.646 214.257,249.385 215.995 C 252.757 218.134,254.832 217.432,253.728 214.525 C 252.550 211.419,252.390 212.068,255.267 208.277 C 256.631 206.479,256.792 205.747,256.155 204.233 C 255.313 202.231,252.810 200.831,250.800 201.238 M137.136 201.730 C 133.526 203.299,134.346 209.304,138.469 211.478 C 141.325 212.984,151.057 213.959,153.409 212.974 C 155.249 212.204,157.075 209.484,157.057 207.542 C 157.034 205.057,155.065 203.796,150.278 203.201 C 149.015 203.044,147.356 202.787,146.591 202.629 C 139.644 201.194,138.597 201.095,137.136 201.730 M286.579 203.520 C 285.570 204.262,285.203 205.241,285.733 205.771 C 286.089 206.127,286.133 206.125,286.133 205.752 C 286.133 205.466,286.383 205.333,286.924 205.333 C 287.359 205.333,288.152 205.125,288.685 204.871 C 289.641 204.415,289.661 204.417,290.160 205.034 C 290.495 205.447,290.667 205.527,290.667 205.271 C 290.667 204.868,289.853 204.000,289.475 204.000 C 289.356 204.000,289.126 203.834,288.963 203.632 C 288.432 202.972,287.390 202.923,286.579 203.520 M300.175 213.173 C 294.749 215.192,296.182 222.645,302.014 222.733 C 308.872 222.837,309.442 213.489,302.613 212.911 C 301.754 212.838,300.798 212.941,300.175 213.173 M234.133 218.158 C 229.969 219.843,231.333 223.949,237.067 226.993 C 249.239 233.456,250.327 233.642,252.325 229.600 C 254.444 225.311,252.666 223.568,242.954 220.410 C 240.398 219.579,237.998 218.741,237.620 218.548 C 236.625 218.038,234.904 217.846,234.133 218.158 M150.800 219.754 C 149.187 220.506,147.147 221.396,146.267 221.732 C 137.783 224.975,135.558 228.538,140.185 231.472 C 141.702 232.434,142.660 232.474,145.192 231.677 C 146.883 231.145,148.291 230.475,154.933 227.039 C 158.837 225.020,160.071 222.899,158.676 220.611 C 157.238 218.251,154.633 217.968,150.800 219.754 M282.333 228.420 C 281.701 228.762,281.294 229.600,281.760 229.600 C 282.235 229.600,283.740 228.688,283.660 228.448 C 283.511 228.001,283.122 227.993,282.333 228.420 M227.467 230.033 C 223.869 232.294,225.247 235.455,232.001 240.436 C 232.808 241.031,234.548 242.434,235.868 243.554 C 240.158 247.194,240.655 247.278,243.504 244.839 C 246.862 241.965,246.097 239.974,240.167 236.148 C 238.426 235.025,235.872 233.264,234.491 232.235 C 230.905 229.563,229.110 229.000,227.467 230.033 M161.600 230.966 C 158.121 231.527,156.754 232.273,151.831 236.296 C 146.225 240.876,145.506 244.243,149.709 246.237 C 152.467 247.546,157.997 244.998,163.436 239.912 C 164.601 238.822,166.224 237.467,167.042 236.899 C 168.715 235.739,168.919 235.359,168.666 233.863 C 168.228 231.269,165.825 230.284,161.600 230.966 M104.267 232.295 C 99.277 235.286,99.420 241.401,104.533 243.712 C 109.017 245.740,114.314 239.736,112.016 235.231 C 110.528 232.315,106.671 230.853,104.267 232.295 M274.247 236.124 C 269.611 236.966,267.670 239.006,266.943 243.803 C 265.276 254.802,278.734 258.706,283.615 248.639 C 285.235 245.298,284.598 239.925,282.335 237.839 C 280.246 235.913,278.014 235.440,274.247 236.124 M220.062 241.242 C 219.186 241.430,218.326 243.268,218.362 244.874 C 218.397 246.443,219.232 248.207,221.166 250.800 C 221.932 251.827,222.822 253.099,223.144 253.628 C 227.373 260.575,236.025 258.108,232.439 250.978 C 229.024 244.190,224.158 240.362,220.062 241.242 M169.733 242.649 C 164.197 245.708,159.649 252.472,161.400 255.043 C 163.746 258.488,166.651 258.751,169.096 255.740 C 169.593 255.127,170.517 254.005,171.150 253.246 C 174.691 248.996,175.505 243.399,172.786 241.993 C 171.793 241.479,171.889 241.458,169.733 242.649 M207.141 245.271 C 204.924 246.224,203.692 249.129,204.364 251.818 C 207.413 264.010,208.746 266.127,212.639 264.955 C 216.850 263.688,217.357 259.851,214.396 251.672 C 212.556 246.588,209.778 244.138,207.141 245.271 M180.970 246.733 C 179.502 248.207,178.571 250.368,177.895 253.867 C 177.739 254.673,177.429 256.173,177.206 257.200 C 176.435 260.744,176.736 262.604,178.364 264.357 C 180.936 267.128,183.321 265.900,184.749 261.067 C 184.900 260.553,185.517 258.513,186.119 256.533 C 187.947 250.525,187.872 248.045,185.813 246.282 C 184.065 244.787,182.792 244.905,180.970 246.733 M194.092 245.842 C 193.736 246.122,193.090 246.992,192.656 247.776 L 191.867 249.200 191.867 257.381 C 191.867 265.263,191.887 265.589,192.425 266.314 C 194.335 268.892,198.612 269.093,199.868 266.664 C 200.474 265.493,200.449 250.845,199.839 248.789 C 198.955 245.813,196.033 244.315,194.092 245.842 " stroke="none" fill="#000000" fill-rule="evenodd"></path></g></svg>