<svg id="svg" xmlns="http://www.w3.org/2000/svg" xmlns:xlink="http://www.w3.org/1999/xlink" width="400" height="400" viewBox="0, 0, 400,400"><g id="svgg"><path id="path0" d="M162.133 109.345 C 160.740 109.452,158.820 109.665,157.867 109.818 C 156.913 109.970,155.233 110.222,154.133 110.378 C 153.033 110.533,151.653 110.775,151.067 110.916 C 150.480 111.057,148.800 111.431,147.333 111.747 C 145.867 112.063,143.707 112.607,142.533 112.954 C 141.360 113.302,139.500 113.820,138.400 114.104 C 132.231 115.698,130.160 116.278,129.203 116.680 C 128.211 117.097,127.456 117.367,122.933 118.925 C 96.151 128.152,68.075 148.252,47.494 172.933 C 42.400 179.042,40.938 180.977,35.499 188.800 C 34.836 189.753,33.913 191.013,33.448 191.600 C 32.409 192.909,28.973 198.874,27.673 201.624 C 24.938 207.412,25.060 209.135,28.498 213.266 C 30.311 215.443,46.934 232.088,49.333 234.128 C 50.433 235.063,53.673 238.080,56.533 240.832 C 61.667 245.773,63.886 247.686,71.467 253.706 C 73.593 255.395,76.520 257.736,77.970 258.910 C 81.288 261.594,88.856 266.723,93.733 269.593 C 95.787 270.802,98.727 272.545,100.267 273.468 C 103.413 275.353,108.917 278.130,111.333 279.051 C 112.213 279.386,114.973 280.560,117.467 281.659 C 125.225 285.077,137.766 289.152,143.600 290.150 C 144.480 290.300,145.800 290.535,146.533 290.671 C 162.140 293.573,179.295 293.852,191.867 291.408 C 201.308 289.572,204.231 288.837,209.867 286.881 C 211.553 286.296,213.773 285.537,214.800 285.194 C 224.259 282.039,245.809 270.488,253.600 264.397 C 255.232 263.122,259.751 259.856,263.333 257.363 C 266.468 255.183,269.542 253.179,271.971 251.733 C 273.326 250.927,275.297 249.592,276.351 248.767 C 278.215 247.309,284.376 243.200,284.700 243.200 C 285.756 243.200,291.781 237.339,292.280 235.826 C 293.436 232.322,291.087 230.933,284.003 230.933 C 276.099 230.933,272.989 232.453,270.557 237.506 C 269.109 240.515,267.223 242.222,261.914 245.333 C 259.536 246.727,256.634 248.430,255.467 249.119 C 253.469 250.298,251.390 251.838,248.933 253.958 C 246.071 256.428,228.566 266.928,227.303 266.932 C 227.139 266.933,226.665 267.201,226.248 267.529 C 225.832 267.856,225.366 268.133,225.212 268.144 C 225.059 268.155,223.733 268.739,222.267 269.441 C 215.654 272.607,213.263 273.635,210.400 274.543 C 208.713 275.077,206.433 275.818,205.333 276.188 C 204.233 276.559,202.253 277.152,200.933 277.508 C 196.615 278.670,195.889 278.875,194.000 279.460 C 191.387 280.269,189.430 280.676,185.733 281.178 C 183.973 281.417,181.573 281.759,180.400 281.938 C 179.026 282.148,175.182 282.257,169.600 282.245 C 156.222 282.216,151.689 281.463,139.733 277.285 C 138.047 276.695,135.167 275.747,133.333 275.177 C 131.500 274.607,128.800 273.730,127.333 273.228 C 125.867 272.725,123.511 271.953,122.099 271.512 C 120.687 271.072,119.007 270.452,118.366 270.135 C 117.725 269.818,115.700 268.900,113.867 268.096 C 112.033 267.291,110.113 266.379,109.600 266.069 C 109.087 265.759,107.647 264.948,106.400 264.268 C 100.529 261.066,91.348 255.057,86.267 251.093 C 71.005 239.187,70.900 239.102,65.600 234.441 C 61.003 230.397,59.647 229.217,54.933 225.153 C 49.727 220.664,43.383 214.309,40.872 211.067 C 39.963 209.893,38.739 208.393,38.151 207.733 C 36.582 205.971,36.848 204.904,40.116 199.867 C 40.877 198.693,41.840 197.133,42.256 196.400 C 43.567 194.087,46.408 190.117,49.185 186.718 C 50.660 184.912,52.407 182.740,53.067 181.890 C 60.213 172.688,76.411 157.867,87.494 150.389 C 88.432 149.756,90.100 148.568,91.200 147.748 C 99.214 141.782,120.740 131.334,130.471 128.689 C 131.904 128.299,134.364 127.520,135.938 126.957 C 151.200 121.499,171.254 119.421,185.200 121.852 C 185.933 121.980,187.613 122.225,188.933 122.397 C 191.098 122.678,193.012 123.034,196.133 123.736 C 196.720 123.868,199.210 124.411,201.667 124.942 C 204.124 125.473,207.484 126.386,209.134 126.971 C 210.784 127.555,213.711 128.561,215.638 129.206 C 223.212 131.740,231.295 135.329,238.933 139.549 C 250.618 146.004,268.280 162.303,276.499 174.215 C 277.997 176.386,280.045 179.206,281.048 180.481 C 284.140 184.408,289.067 192.591,289.067 193.799 C 289.067 194.443,286.127 194.872,283.787 194.570 C 280.786 194.182,265.358 194.322,264.716 194.743 C 263.374 195.622,263.131 199.341,264.341 200.478 C 265.818 201.866,265.935 201.877,282.450 202.261 C 300.262 202.675,299.927 202.711,301.322 200.229 C 303.354 196.614,301.536 191.902,292.277 176.800 C 281.402 159.061,259.838 138.529,239.242 126.304 C 235.849 124.289,233.992 123.430,225.600 119.993 C 220.085 117.734,210.577 114.661,205.867 113.615 C 204.473 113.306,202.913 112.939,202.400 112.799 C 201.887 112.660,200.567 112.408,199.467 112.240 C 197.031 111.868,195.933 111.665,193.302 111.098 C 186.858 109.709,169.821 108.750,162.133 109.345 M169.933 118.322 C 169.603 118.385,169.063 118.385,168.733 118.322 C 168.403 118.258,168.673 118.206,169.333 118.206 C 169.993 118.206,170.263 118.258,169.933 118.322 M160.118 140.775 C 160.200 140.908,159.637 141.097,158.867 141.196 C 158.097 141.295,157.107 141.476,156.667 141.598 C 156.227 141.720,155.027 142.015,154.000 142.254 C 151.074 142.934,141.523 146.849,138.635 148.552 C 137.906 148.982,137.250 149.333,137.176 149.333 C 136.430 149.333,125.760 157.499,123.706 159.642 C 113.838 169.937,107.117 183.128,104.502 197.333 C 104.032 199.884,103.997 212.515,104.454 214.667 C 104.625 215.473,105.080 217.857,105.465 219.963 C 107.531 231.261,113.831 242.547,122.993 251.361 C 129.621 257.738,141.719 264.795,149.253 266.679 C 150.544 267.002,151.885 267.374,152.234 267.506 C 154.748 268.458,164.711 269.867,168.926 269.867 C 172.323 269.867,177.542 269.156,181.467 268.159 C 190.636 265.830,191.420 265.553,196.800 262.750 C 205.176 258.386,211.666 253.218,218.001 245.867 C 218.696 245.060,219.494 244.160,219.774 243.867 C 220.566 243.037,223.364 239.027,224.410 237.225 C 224.929 236.331,225.883 234.760,226.530 233.733 C 228.595 230.457,230.488 224.173,231.751 216.400 C 232.771 210.118,231.622 195.491,229.593 188.933 C 225.232 174.844,219.279 165.389,209.467 156.971 C 202.703 151.168,201.153 150.083,196.568 147.943 C 195.009 147.216,192.773 146.171,191.600 145.621 C 183.198 141.685,169.319 139.399,162.194 140.777 C 161.562 140.899,160.991 140.894,160.912 140.765 C 160.833 140.638,160.589 140.533,160.369 140.533 C 160.149 140.533,160.036 140.642,160.118 140.775 M175.733 152.168 C 185.395 153.727,194.649 157.758,200.667 163.029 C 212.767 173.627,218.920 183.928,221.182 197.371 C 221.753 200.765,222.106 205.365,221.833 205.867 C 221.650 206.205,221.615 206.196,221.608 205.811 C 221.604 205.561,221.134 204.866,220.565 204.268 L 219.529 203.179 213.431 203.333 C 206.348 203.513,205.530 203.592,204.621 204.188 C 202.732 205.425,201.987 208.430,203.160 210.078 C 204.655 212.176,206.157 212.533,213.497 212.533 C 219.240 212.533,219.549 212.479,220.867 211.251 L 221.600 210.567 221.598 211.883 C 221.595 213.605,221.111 216.559,220.762 216.979 C 220.611 217.161,220.565 217.436,220.660 217.590 C 220.756 217.744,220.708 218.259,220.554 218.735 C 220.400 219.211,219.965 220.680,219.586 222.000 C 215.424 236.505,204.941 248.480,191.467 254.121 C 190.367 254.582,188.927 255.189,188.267 255.472 C 187.607 255.754,186.407 256.180,185.600 256.418 C 184.793 256.657,183.653 257.037,183.067 257.264 C 182.480 257.490,181.820 257.696,181.600 257.721 C 181.380 257.746,180.922 257.917,180.582 258.102 C 180.243 258.287,179.343 258.554,178.582 258.696 C 177.822 258.838,176.600 259.085,175.867 259.245 C 175.133 259.404,173.854 259.549,173.023 259.567 C 172.192 259.585,171.422 259.690,171.312 259.800 C 171.015 260.096,161.867 260.048,161.867 259.750 C 161.867 259.613,161.477 259.561,161.000 259.636 C 160.523 259.711,159.413 259.572,158.533 259.328 C 157.653 259.084,156.213 258.737,155.333 258.555 C 152.236 257.918,142.329 253.232,137.127 249.944 C 129.203 244.937,121.516 235.290,117.517 225.333 C 117.252 224.673,116.867 223.750,116.662 223.280 C 115.178 219.890,113.702 210.151,113.947 205.373 C 114.169 201.049,115.394 193.730,116.082 192.617 C 116.157 192.496,116.534 191.197,116.921 189.731 C 117.331 188.176,118.285 185.712,119.212 183.814 C 120.085 182.026,120.800 180.489,120.800 180.400 C 120.800 180.311,121.321 179.435,121.957 178.452 C 122.594 177.470,123.562 175.962,124.109 175.100 C 125.783 172.462,129.937 167.736,132.978 165.013 C 145.532 153.768,159.552 149.556,175.733 152.168 M167.210 153.383 C 164.104 154.264,163.591 155.553,163.637 162.350 C 163.684 169.259,164.413 171.249,167.138 171.900 C 167.539 171.995,168.017 172.192,168.200 172.336 C 168.419 172.509,168.533 172.508,168.533 172.333 C 168.533 172.186,168.889 171.996,169.323 171.909 C 170.292 171.715,172.092 170.132,172.521 169.096 C 172.743 168.561,172.812 166.564,172.752 162.454 L 172.667 156.578 171.867 155.446 C 170.667 153.749,168.813 152.927,167.210 153.383 M187.390 158.956 C 185.200 160.112,179.933 169.417,179.933 172.130 C 179.933 173.743,182.238 175.430,184.753 175.658 C 186.759 175.840,187.640 175.126,189.313 171.964 C 189.962 170.737,191.246 168.623,192.167 167.267 C 195.082 162.975,194.527 160.665,190.168 158.947 C 188.509 158.293,188.648 158.293,187.390 158.956 M145.375 159.201 C 145.032 159.348,144.623 159.389,144.468 159.293 C 144.312 159.196,144.259 159.238,144.349 159.385 C 144.440 159.532,144.167 159.984,143.743 160.391 C 141.580 162.463,141.906 163.548,147.274 172.155 C 150.304 177.014,156.267 176.760,156.267 171.773 C 156.267 169.841,151.323 160.666,149.715 159.612 C 148.877 159.063,146.275 158.817,145.375 159.201 M129.408 171.758 C 128.528 172.193,128.127 172.632,127.570 173.771 C 126.443 176.075,126.745 176.702,131.025 180.941 C 135.851 185.722,138.319 186.996,140.170 185.663 C 144.261 182.717,143.729 180.507,137.637 175.146 C 133.150 171.198,131.725 170.611,129.408 171.758 M202.133 171.912 C 197.999 174.348,192.673 180.018,192.870 181.772 C 193.110 183.896,194.918 185.669,196.879 185.702 C 198.585 185.731,203.975 181.765,207.867 177.618 C 210.955 174.326,206.150 169.545,202.133 171.912 M78.972 175.735 C 76.569 176.762,74.483 180.377,71.576 188.556 C 69.039 195.692,68.520 205.931,70.446 210.862 C 71.899 214.580,75.414 215.384,78.236 212.644 C 79.894 211.033,79.972 210.715,80.247 204.351 C 80.499 198.543,80.621 197.548,81.451 194.533 C 82.141 192.030,82.911 190.569,85.854 186.187 C 90.211 179.699,90.356 177.980,86.686 176.326 C 85.038 175.582,80.197 175.212,78.972 175.735 M162.289 180.306 C 161.568 180.590,160.826 180.765,160.640 180.693 C 160.454 180.622,160.263 180.654,160.217 180.766 C 160.171 180.877,159.113 181.464,157.867 182.069 C 153.674 184.105,148.766 188.650,147.008 192.126 C 143.628 198.804,143.368 209.953,146.447 216.107 C 149.256 221.722,155.369 226.992,160.267 228.021 C 161.073 228.190,161.878 228.445,162.055 228.587 C 162.232 228.730,162.493 228.774,162.636 228.686 C 162.778 228.598,163.886 228.637,165.098 228.772 C 179.368 230.369,191.598 219.919,191.594 206.133 C 191.593 201.291,191.466 200.400,190.209 196.444 C 186.888 185.987,171.063 176.840,162.289 180.306 M210.400 187.482 C 200.793 190.204,197.815 192.813,200.169 196.444 C 202.074 199.381,203.887 199.565,210.268 197.470 C 216.715 195.354,217.338 194.866,217.327 191.943 C 217.312 187.568,215.107 186.148,210.400 187.482 M119.953 188.200 C 119.058 189.165,118.667 190.403,118.667 192.270 C 118.667 194.720,119.544 195.517,123.367 196.543 C 124.522 196.853,126.127 197.289,126.933 197.513 C 132.979 199.188,133.915 199.163,135.610 197.287 C 137.676 195.000,136.406 192.197,132.501 190.426 C 126.308 187.619,121.314 186.732,119.953 188.200 M252.133 189.127 C 251.693 189.276,250.740 189.653,250.014 189.965 C 249.288 190.278,248.613 190.508,248.512 190.477 C 248.412 190.446,248.117 190.656,247.857 190.944 C 247.597 191.231,247.284 191.467,247.161 191.467 C 246.916 191.467,244.694 193.059,243.904 193.801 C 239.693 197.752,242.222 204.655,247.067 202.432 C 249.519 201.307,256.062 195.829,256.891 194.207 C 258.443 191.170,255.472 187.999,252.133 189.127 M359.600 189.081 C 358.280 189.189,355.594 189.290,353.631 189.305 C 349.471 189.338,348.848 189.581,347.490 191.698 C 345.909 194.161,347.525 197.840,350.533 198.627 C 352.516 199.146,368.395 199.032,369.265 198.492 C 372.677 196.376,373.314 192.999,370.769 190.519 C 369.036 188.831,366.557 188.512,359.600 189.081 M317.200 189.585 C 310.139 189.887,307.856 194.201,312.605 198.266 L 313.696 199.200 322.725 199.200 C 332.957 199.200,332.904 199.210,334.771 197.028 C 335.737 195.900,336.247 192.800,335.467 192.800 C 335.320 192.800,335.200 192.625,335.200 192.411 C 335.200 191.534,333.245 189.943,331.787 189.633 C 330.352 189.329,323.689 189.307,317.200 189.585 M166.891 192.652 C 175.223 194.870,175.851 205.943,167.867 209.860 C 165.892 210.830,160.583 210.870,161.171 209.912 C 161.232 209.814,160.926 209.720,160.493 209.704 C 158.542 209.632,156.154 206.760,155.314 203.475 C 153.545 196.559,159.756 190.753,166.891 192.652 M117.740 203.228 C 113.398 203.943,113.668 210.599,118.114 212.467 C 119.377 212.997,128.698 212.718,130.911 212.084 C 135.495 210.770,135.896 205.943,131.600 203.796 C 130.471 203.232,120.257 202.813,117.740 203.228 M241.523 211.547 C 237.530 213.024,238.298 219.488,242.615 220.745 C 243.604 221.033,277.531 221.281,339.333 221.453 C 354.587 221.495,368.627 221.598,370.533 221.681 C 375.429 221.895,377.433 221.098,378.804 218.392 C 379.992 216.048,379.541 213.494,377.690 212.083 L 376.708 211.333 309.405 211.333 C 272.388 211.333,241.841 211.430,241.523 211.547 M200.365 216.989 C 198.275 218.743,198.062 222.149,199.948 223.654 C 201.427 224.834,207.019 227.336,211.185 228.682 L 213.169 229.324 214.254 228.688 C 216.214 227.540,217.666 224.201,216.809 222.815 C 216.160 221.764,216.312 221.839,209.200 219.035 C 202.941 216.567,201.316 216.191,200.365 216.989 M129.467 217.706 C 120.373 220.207,118.624 221.538,119.468 225.312 C 120.207 228.611,122.712 229.964,125.935 228.805 C 131.894 226.661,137.073 223.265,137.056 221.513 C 137.016 217.501,134.607 216.293,129.467 217.706 M194.815 227.641 C 190.893 229.054,190.983 232.854,195.038 237.022 C 201.157 243.312,204.174 244.208,207.412 240.695 C 209.848 238.052,208.773 235.953,202.285 230.683 C 198.516 227.623,196.803 226.925,194.815 227.641 M136.400 228.848 C 133.212 230.515,129.067 235.382,129.067 237.458 C 129.067 241.199,133.034 243.116,136.011 240.813 C 137.831 239.404,142.666 234.624,143.090 233.813 C 144.891 230.370,140.179 226.872,136.400 228.848 M243.653 228.806 C 239.575 232.014,241.839 237.245,248.793 240.681 C 253.228 242.873,254.098 242.906,256.186 240.963 L 257.730 239.525 257.223 238.034 C 255.763 233.738,245.905 227.035,243.653 228.806 M314.533 231.733 C 314.627 231.885,314.398 232.000,314.002 232.000 C 309.441 232.000,308.922 238.905,313.316 241.133 L 314.762 241.867 323.448 241.861 C 331.322 241.856,332.233 241.809,333.200 241.363 C 338.457 238.936,335.331 230.639,329.578 231.749 C 327.875 232.078,316.800 232.064,316.800 231.733 C 316.800 231.587,316.253 231.467,315.584 231.467 C 314.842 231.467,314.433 231.570,314.533 231.733 M349.392 232.437 C 345.794 235.444,347.163 240.486,351.810 241.345 C 353.685 241.692,368.314 242.086,369.579 241.824 C 373.203 241.074,374.195 236.882,371.481 233.791 C 369.578 231.623,369.871 231.678,359.648 231.575 L 350.533 231.483 349.392 232.437 M151.008 235.220 C 149.323 235.726,145.573 241.626,143.200 247.503 C 141.569 251.545,146.436 254.741,149.817 251.847 C 151.389 250.501,156.845 241.318,157.202 239.417 C 157.706 236.732,154.100 234.290,151.008 235.220 M181.596 235.800 C 178.412 237.706,178.218 239.471,180.757 243.426 C 181.760 244.988,183.101 247.162,183.736 248.257 C 186.921 253.743,189.817 254.716,193.124 251.409 C 194.851 249.683,194.702 249.136,190.532 241.883 C 186.658 235.143,184.802 233.880,181.596 235.800 M166.255 238.630 C 165.068 239.354,164.051 240.676,163.811 241.808 C 163.390 243.790,163.585 255.499,164.057 256.575 C 165.417 259.672,171.086 259.736,172.484 256.669 C 172.913 255.727,173.190 245.983,172.859 243.444 C 172.323 239.321,169.042 236.930,166.255 238.630 M225.172 269.133 C 224.621 270.086,223.935 270.933,223.715 270.933 C 223.271 270.933,223.451 270.413,224.177 269.598 C 224.885 268.804,225.539 268.498,225.172 269.133 " stroke="none" fill="#000000" fill-rule="evenodd"></path></g></svg>