<svg id="svg" xmlns="http://www.w3.org/2000/svg" xmlns:xlink="http://www.w3.org/1999/xlink" width="400" height="400" viewBox="0, 0, 400,400"><g id="svgg"><path id="path0" d="M195.467 100.308 C 190.714 100.557,187.948 100.764,185.200 101.077 C 183.880 101.228,182.260 101.405,181.600 101.471 C 180.940 101.538,179.380 101.720,178.133 101.877 C 176.887 102.034,175.327 102.215,174.667 102.279 C 174.007 102.343,173.287 102.474,173.067 102.569 C 172.593 102.774,170.335 103.207,169.200 103.310 C 168.760 103.349,168.100 103.504,167.733 103.654 C 167.367 103.803,166.407 104.067,165.600 104.241 C 164.793 104.415,163.533 104.727,162.800 104.934 C 159.271 105.931,157.409 106.471,156.800 106.674 C 156.433 106.797,154.693 107.339,152.933 107.879 C 148.800 109.147,139.978 112.614,134.133 115.267 C 133.327 115.633,131.887 116.265,130.933 116.671 C 125.490 118.989,120.364 121.928,111.387 127.878 C 100.042 135.399,98.074 137.002,86.400 148.227 C 78.490 155.833,75.895 158.518,70.533 164.642 C 68.458 167.012,66.718 169.187,63.259 173.733 C 62.478 174.760,60.615 177.202,59.119 179.160 C 53.691 186.266,49.302 192.405,44.945 198.988 C 33.713 215.956,33.888 214.659,41.330 225.810 C 45.914 232.679,47.036 234.262,50.559 238.827 C 51.453 239.985,52.988 242.133,53.969 243.600 C 59.146 251.333,62.560 255.355,72.385 265.290 C 80.747 273.747,87.681 280.080,93.600 284.668 C 97.178 287.440,106.898 294.143,110.042 296.006 C 111.239 296.715,113.579 298.226,115.242 299.364 C 116.906 300.503,119.211 302.078,120.365 302.865 C 124.572 305.733,142.432 314.188,149.067 316.452 C 149.727 316.677,151.047 317.221,152.000 317.661 C 157.322 320.116,163.957 322.502,169.600 323.990 C 170.847 324.318,172.167 324.687,172.533 324.810 C 172.900 324.932,174.100 325.169,175.200 325.336 C 176.300 325.503,177.680 325.746,178.267 325.874 C 178.853 326.003,180.023 326.183,180.867 326.274 C 181.710 326.364,182.573 326.611,182.783 326.821 C 183.008 327.046,183.231 327.098,183.325 326.947 C 183.412 326.806,183.630 326.740,183.809 326.801 C 183.987 326.862,185.873 327.102,188.000 327.333 C 190.127 327.565,192.047 327.821,192.267 327.903 C 192.728 328.074,210.127 328.073,210.691 327.902 C 210.898 327.839,212.627 327.644,214.533 327.468 C 219.243 327.033,221.510 326.755,222.933 326.435 C 223.593 326.287,225.633 325.906,227.467 325.589 C 229.300 325.272,231.076 324.904,231.413 324.773 C 231.749 324.641,232.328 324.533,232.699 324.533 C 235.208 324.533,245.850 321.120,251.200 318.600 C 252.740 317.874,255.320 316.706,256.933 316.005 C 264.155 312.864,276.277 306.884,279.600 304.821 C 281.213 303.820,284.573 301.799,287.067 300.330 C 289.560 298.860,292.740 296.832,294.133 295.821 C 295.527 294.810,298.467 292.739,300.667 291.218 C 307.133 286.749,307.141 286.742,315.067 279.947 C 322.700 273.403,335.933 259.948,339.309 255.298 C 340.147 254.144,341.395 252.460,342.083 251.555 C 345.038 247.667,347.471 244.281,348.470 242.667 C 349.961 240.255,352.917 235.933,354.684 233.578 C 355.500 232.490,356.640 230.940,357.217 230.133 C 357.794 229.327,359.299 227.461,360.562 225.987 C 367.472 217.920,367.739 215.512,362.596 207.670 C 361.513 206.018,359.565 202.987,358.268 200.933 C 353.927 194.060,350.479 188.975,346.491 183.562 C 344.314 180.608,341.513 176.782,340.267 175.059 C 329.945 160.798,320.801 150.997,307.078 139.488 C 305.605 138.252,303.680 136.604,302.800 135.824 C 289.326 123.882,268.168 112.700,247.600 106.650 C 247.160 106.521,246.200 106.237,245.467 106.020 C 243.627 105.475,238.787 104.344,237.333 104.119 C 236.673 104.017,235.833 103.815,235.467 103.671 C 235.100 103.526,234.380 103.376,233.867 103.337 C 232.170 103.207,229.188 102.700,228.432 102.412 C 228.023 102.257,227.584 102.194,227.457 102.273 C 227.156 102.458,225.837 102.130,225.977 101.905 C 226.035 101.811,225.224 101.721,224.175 101.705 C 221.721 101.669,219.436 101.332,219.621 101.033 C 219.700 100.905,219.638 100.800,219.482 100.800 C 219.327 100.800,219.200 100.925,219.200 101.079 C 219.200 101.365,217.328 101.145,217.067 100.828 C 216.993 100.739,215.733 100.657,214.267 100.644 C 212.800 100.632,208.720 100.512,205.200 100.378 C 201.680 100.243,197.300 100.212,195.467 100.308 M207.733 113.945 C 214.700 114.126,219.142 114.647,218.775 115.240 C 218.698 115.365,218.935 115.467,219.302 115.467 C 219.669 115.467,220.044 115.345,220.136 115.196 C 220.228 115.047,220.392 114.979,220.500 115.046 C 220.608 115.113,221.644 115.234,222.802 115.316 C 225.218 115.486,227.733 116.014,227.733 116.351 C 227.733 116.477,228.201 116.501,228.773 116.405 C 229.345 116.308,230.275 116.352,230.839 116.503 C 231.404 116.654,233.606 117.214,235.732 117.747 C 237.858 118.281,240.078 118.881,240.666 119.080 C 241.253 119.279,242.483 119.628,243.400 119.854 C 244.317 120.081,245.793 120.447,246.680 120.667 C 248.899 121.217,255.959 123.972,263.625 127.279 C 271.238 130.563,279.054 135.014,286.667 140.398 C 287.473 140.969,288.524 141.702,289.001 142.027 C 300.284 149.712,317.077 165.746,325.881 177.237 C 326.989 178.683,329.517 181.967,331.499 184.533 C 340.050 195.609,352.000 214.364,352.000 216.710 C 352.000 216.902,351.119 217.930,350.043 218.996 C 348.659 220.366,347.436 221.988,345.871 224.533 C 343.104 229.031,338.540 235.919,337.018 237.894 C 335.186 240.270,329.138 247.436,327.359 249.338 C 326.465 250.294,324.475 252.514,322.937 254.271 C 317.632 260.334,312.630 265.257,306.550 270.400 C 306.117 270.767,305.276 271.493,304.681 272.015 C 301.533 274.775,298.453 277.227,295.483 279.336 C 293.659 280.632,291.739 282.074,291.217 282.540 C 289.837 283.773,285.438 286.749,283.733 287.603 C 282.927 288.007,280.707 289.358,278.800 290.606 C 275.653 292.665,274.328 293.391,268.800 296.088 C 267.847 296.553,267.007 296.999,266.933 297.080 C 266.666 297.374,252.589 304.240,250.000 305.339 C 248.533 305.962,246.853 306.681,246.267 306.936 C 245.680 307.192,243.880 307.854,242.267 308.409 C 240.653 308.963,239.205 309.515,239.048 309.634 C 238.892 309.754,238.352 309.885,237.848 309.926 C 237.345 309.967,236.813 310.144,236.667 310.319 C 236.299 310.759,234.153 311.458,233.702 311.284 C 233.499 311.207,233.333 311.260,233.333 311.402 C 233.333 311.722,229.704 312.630,229.200 312.437 C 228.999 312.360,228.796 312.411,228.749 312.552 C 228.703 312.692,227.945 312.932,227.066 313.085 C 219.146 314.461,215.223 315.022,213.183 315.070 C 212.293 315.090,211.453 315.175,211.316 315.257 C 210.292 315.871,192.354 315.631,189.600 314.966 C 188.940 314.806,186.960 314.430,185.200 314.129 C 174.055 312.226,173.391 312.081,170.000 310.820 C 167.016 309.710,165.583 309.182,162.667 308.118 C 161.567 307.716,158.507 306.492,155.867 305.398 C 153.227 304.303,149.353 302.705,147.259 301.845 C 136.618 297.478,132.830 295.572,122.400 289.334 C 112.162 283.211,101.730 275.388,91.638 266.267 C 90.177 264.947,88.301 263.267,87.469 262.533 C 85.059 260.409,74.780 249.322,71.276 245.067 C 64.484 236.819,61.037 232.409,58.798 229.100 C 58.066 228.018,56.687 226.235,55.733 225.139 C 49.433 217.890,48.927 216.185,51.667 211.429 C 52.542 209.910,53.695 207.868,54.228 206.892 C 54.761 205.916,55.676 204.513,56.260 203.773 C 56.845 203.034,58.195 201.156,59.262 199.601 C 66.007 189.761,69.116 185.593,73.997 179.847 C 74.879 178.809,77.100 176.110,78.933 173.848 C 83.986 167.614,92.952 158.799,101.620 151.543 C 102.709 150.632,104.980 148.724,106.667 147.304 C 112.672 142.249,115.464 140.303,124.667 134.758 C 129.351 131.936,137.036 128.065,141.200 126.429 C 142.813 125.796,145.573 124.672,147.333 123.933 C 154.434 120.949,164.478 117.746,170.116 116.669 C 172.105 116.288,174.153 115.872,174.667 115.742 C 176.616 115.252,179.860 114.915,179.953 115.194 C 180.003 115.344,180.222 115.467,180.438 115.467 C 180.654 115.467,180.763 115.355,180.679 115.219 C 180.387 114.747,184.223 114.095,187.954 113.982 C 189.175 113.945,190.255 113.833,190.354 113.734 C 190.506 113.580,196.535 113.653,207.733 113.945 M199.600 130.667 C 199.700 130.829,199.261 130.949,198.482 130.974 C 197.777 130.996,196.840 131.035,196.400 131.061 C 187.396 131.587,185.688 131.855,180.267 133.587 C 179.460 133.845,177.900 134.330,176.800 134.665 C 160.814 139.539,144.861 150.331,135.188 162.814 C 132.500 166.283,128.461 171.874,127.300 173.733 C 123.870 179.227,119.299 189.353,118.153 194.000 C 118.008 194.587,117.644 196.027,117.345 197.200 C 117.045 198.373,116.620 200.526,116.399 201.985 C 116.179 203.443,115.857 204.724,115.683 204.831 C 115.464 204.966,115.451 205.135,115.639 205.380 C 115.812 205.605,115.838 206.557,115.710 208.000 C 115.440 211.047,115.441 220.214,115.712 222.533 C 115.833 223.570,115.827 224.513,115.698 224.653 C 115.407 224.971,115.394 225.867,115.680 225.867 C 115.937 225.867,116.533 228.625,116.533 229.812 C 116.533 230.278,116.648 231.171,116.789 231.796 C 116.930 232.422,117.179 233.653,117.342 234.533 C 119.056 243.754,126.854 259.682,133.729 268.008 C 136.096 270.875,142.963 277.815,145.412 279.816 C 153.022 286.033,152.599 285.727,158.667 289.410 C 160.500 290.523,162.780 291.789,163.733 292.223 C 168.522 294.405,176.202 297.333,177.136 297.333 C 177.343 297.333,178.222 297.557,179.089 297.830 C 182.009 298.749,185.597 299.469,190.533 300.126 C 196.598 300.934,199.720 301.091,204.133 300.809 C 209.353 300.476,209.920 300.416,211.600 300.012 C 212.333 299.835,213.593 299.592,214.400 299.470 C 216.824 299.106,222.949 297.779,225.733 297.016 C 233.075 295.003,246.608 288.326,252.701 283.711 C 257.175 280.322,264.697 272.665,267.610 268.533 C 268.179 267.727,269.223 266.423,269.931 265.636 C 275.578 259.355,281.470 247.818,283.772 238.533 C 283.917 237.947,284.148 237.098,284.285 236.648 C 284.421 236.197,284.533 235.606,284.533 235.333 C 284.533 235.061,284.647 234.469,284.786 234.019 C 286.781 227.540,287.140 209.030,285.438 200.400 C 282.130 183.630,273.364 167.642,260.632 155.158 C 249.418 144.163,240.246 138.448,227.733 134.659 C 226.633 134.326,225.193 133.880,224.533 133.668 C 220.843 132.483,218.149 131.920,214.000 131.465 C 210.566 131.089,209.831 130.939,210.008 130.653 C 210.171 130.390,208.733 130.289,208.477 130.545 C 208.276 130.746,200.806 130.762,200.606 130.562 C 200.333 130.288,199.425 130.383,199.600 130.667 M208.000 144.980 C 208.367 145.066,209.245 145.112,209.953 145.081 C 211.978 144.993,217.344 145.980,221.733 147.248 C 227.356 148.871,238.460 154.166,243.333 157.548 C 255.967 166.313,265.501 179.489,271.061 195.867 C 272.880 201.224,274.429 211.445,273.566 212.387 C 273.247 212.734,273.272 213.600,273.600 213.600 C 273.747 213.600,273.867 213.900,273.867 214.267 C 273.867 214.633,273.747 214.933,273.600 214.933 C 273.250 214.933,273.254 216.186,273.604 216.403 C 273.753 216.495,273.783 216.712,273.671 216.885 C 273.559 217.058,273.459 219.190,273.450 221.622 C 273.435 225.545,273.371 226.170,272.878 227.166 C 272.572 227.784,272.382 228.516,272.455 228.794 C 272.740 229.886,270.308 238.209,268.403 242.659 C 267.623 244.482,266.373 246.871,263.658 251.729 C 258.630 260.727,249.896 270.436,242.667 275.063 C 241.567 275.767,240.222 276.624,239.679 276.967 C 238.682 277.597,231.612 281.067,231.325 281.067 C 231.240 281.067,230.667 281.294,230.052 281.571 C 229.437 281.849,227.853 282.519,226.533 283.061 C 225.213 283.602,223.773 284.206,223.333 284.402 C 221.557 285.193,217.500 286.419,217.129 286.276 C 216.911 286.193,216.588 286.244,216.412 286.390 C 215.944 286.778,212.423 287.314,210.267 287.324 C 209.240 287.329,208.220 287.449,208.000 287.590 C 207.412 287.968,199.131 287.926,199.004 287.545 C 198.936 287.343,198.419 287.292,197.450 287.392 C 196.651 287.474,195.128 287.407,194.065 287.243 C 193.003 287.079,191.053 286.817,189.733 286.661 C 188.413 286.505,186.853 286.271,186.267 286.140 C 185.680 286.009,184.420 285.759,183.467 285.584 C 180.041 284.955,175.298 283.154,168.400 279.864 C 149.966 271.070,135.604 253.625,129.872 233.067 C 129.688 232.407,129.432 231.519,129.302 231.094 C 129.173 230.668,129.067 229.762,129.067 229.080 C 129.067 228.398,128.960 227.726,128.830 227.587 C 128.390 227.115,127.932 220.165,127.966 214.465 C 128.004 208.087,128.529 203.748,129.862 198.800 C 130.178 197.627,130.614 196.007,130.831 195.200 C 134.952 179.896,145.270 166.802,162.062 155.566 C 167.530 151.907,178.154 147.373,184.533 145.976 C 185.487 145.767,186.807 145.474,187.467 145.325 C 188.127 145.176,189.087 145.068,189.600 145.085 C 190.113 145.102,190.953 145.001,191.467 144.861 C 192.438 144.595,206.801 144.698,208.000 144.980 M199.200 158.595 C 193.929 162.028,192.968 167.064,196.777 171.286 C 198.846 173.579,201.717 173.840,204.221 171.963 C 209.858 167.736,209.112 160.768,202.825 158.912 C 202.151 158.713,201.600 158.456,201.600 158.342 C 201.600 157.969,199.884 158.150,199.200 158.595 M227.333 166.654 C 225.246 167.517,222.578 171.581,222.578 173.897 C 222.578 176.604,223.805 177.879,228.533 180.085 C 230.688 181.090,231.052 181.398,235.896 186.303 L 240.991 191.462 241.591 193.665 C 243.512 200.717,245.126 203.615,247.855 204.910 C 249.930 205.895,253.962 204.873,256.533 202.710 C 260.505 199.370,252.159 187.355,247.505 189.714 C 246.325 190.312,245.896 190.398,244.849 190.246 C 242.164 189.857,242.101 189.467,244.333 187.063 C 247.275 183.894,246.582 180.956,241.535 175.191 C 235.514 168.315,230.544 165.327,227.333 166.654 M171.188 166.906 C 169.675 167.394,165.794 170.286,162.717 173.217 C 159.698 176.094,157.969 178.126,154.133 183.307 C 153.327 184.397,151.549 186.397,150.183 187.751 C 144.656 193.231,142.040 199.804,144.479 202.083 C 146.812 204.262,151.800 205.146,154.509 203.860 C 155.687 203.302,157.338 201.033,159.066 197.600 C 163.434 188.923,167.717 183.558,172.267 181.064 C 178.887 177.436,180.687 174.370,178.624 170.238 C 177.451 167.889,173.553 166.143,171.188 166.906 M196.000 186.151 C 196.000 186.416,193.074 187.236,192.780 187.054 C 192.625 186.958,192.356 187.061,192.182 187.283 C 192.009 187.504,191.207 187.961,190.400 188.297 C 183.771 191.065,177.158 197.632,175.259 203.333 C 170.835 216.616,172.857 228.712,180.891 237.023 C 183.683 239.912,189.086 243.109,192.467 243.873 C 193.530 244.113,194.400 244.401,194.400 244.512 C 194.400 245.108,206.519 244.619,208.800 243.932 C 218.455 241.021,223.220 237.070,227.530 228.400 C 231.469 220.477,230.365 207.569,225.078 199.733 C 223.714 197.711,220.115 194.019,218.424 192.907 C 217.777 192.481,216.937 191.925,216.557 191.671 C 215.878 191.215,210.501 188.533,210.267 188.533 C 210.202 188.533,209.515 188.244,208.741 187.891 C 207.967 187.538,206.463 187.045,205.400 186.796 C 204.337 186.546,203.467 186.265,203.467 186.171 C 203.467 186.077,201.787 186.000,199.733 186.000 C 197.680 186.000,196.000 186.068,196.000 186.151 M199.867 201.429 C 205.662 202.977,208.243 206.451,207.943 212.298 C 207.392 223.016,192.667 227.130,187.676 217.959 C 182.649 208.722,189.976 198.787,199.867 201.429 M253.087 209.394 C 248.830 209.797,247.117 213.034,248.578 217.912 C 250.017 222.714,259.671 222.152,260.814 217.200 C 261.898 212.503,258.330 208.898,253.087 209.394 M144.385 209.572 C 140.821 211.125,140.693 217.210,144.160 220.254 C 150.155 225.518,158.684 218.287,154.732 211.291 C 153.843 209.717,146.755 208.540,144.385 209.572 M247.143 229.303 C 246.661 229.726,245.766 231.016,245.154 232.170 C 244.155 234.053,243.769 235.255,242.904 239.179 C 242.761 239.827,242.439 240.520,242.189 240.718 C 241.343 241.387,239.869 242.060,239.519 241.936 C 238.643 241.625,234.990 243.701,232.133 246.134 C 231.253 246.883,229.443 248.271,228.111 249.218 C 223.386 252.576,221.838 254.727,221.641 258.207 C 221.460 261.410,223.758 264.864,226.952 266.191 C 227.675 266.492,228.267 266.842,228.267 266.969 C 228.267 267.096,228.867 267.200,229.600 267.200 C 230.333 267.200,230.933 267.096,230.933 266.970 C 230.933 266.843,231.444 266.544,232.068 266.306 C 236.391 264.655,245.386 253.942,246.672 248.912 L 247.178 246.934 246.402 245.667 C 244.705 242.897,245.561 241.915,248.579 243.168 C 252.704 244.883,255.852 242.377,257.082 236.400 C 258.148 231.221,250.872 226.026,247.143 229.303 M150.234 229.120 C 150.166 229.229,149.635 229.461,149.053 229.635 C 143.763 231.221,143.608 238.867,148.786 242.867 C 150.228 243.980,150.688 243.959,153.295 242.654 C 159.284 239.656,161.212 234.563,157.690 231.041 C 156.169 229.520,150.836 228.146,150.234 229.120 M165.407 244.087 C 164.225 244.517,163.727 245.091,162.126 247.867 C 161.364 249.187,160.507 250.674,160.220 251.172 C 158.261 254.574,160.095 257.583,166.937 262.197 C 173.104 266.356,176.994 266.673,179.455 263.217 C 181.057 260.967,180.223 255.200,178.297 255.200 C 177.543 255.200,175.733 253.308,175.733 252.520 C 175.733 249.704,171.901 245.400,168.351 244.228 C 166.642 243.665,166.576 243.661,165.407 244.087 M199.710 257.847 C 194.783 259.399,193.280 268.992,197.327 273.060 L 198.537 274.276 200.668 274.265 C 208.176 274.225,211.200 265.308,205.604 259.712 C 204.055 258.163,201.386 257.318,199.710 257.847 " stroke="none" fill="#000000" fill-rule="evenodd"></path></g></svg>